<svg width="108" height="50" viewBox="0 0 108 50" fill="none" xmlns="http://www.w3.org/2000/svg">
<path fill-rule="evenodd" clip-rule="evenodd" d="M45.1331 16.8573V32.2334C45.1333 33.8428 44.7082 35.4239 43.9006 36.8178C43.093 38.2116 41.9314 39.3691 40.5324 40.1738L27.1672 47.8619C25.7684 48.6665 24.1817 49.0901 22.5666 49.0901C20.9514 49.0901 19.3647 48.6665 17.9659 47.8619L4.60066 40.1738C3.20173 39.3691 2.04007 38.2116 1.23247 36.8178C0.424879 35.4239 -0.00018382 33.8428 0 32.2334V16.8573C-0.00018382 15.2479 0.424879 13.6667 1.23247 12.2729C2.04007 10.879 3.20173 9.72157 4.60066 8.91685L17.9659 1.22822C19.3647 0.423597 20.9514 0 22.5666 0C24.1817 0 25.7684 0.423597 27.1672 1.22822L40.5324 8.91685C41.9314 9.72157 43.093 10.879 43.9006 12.2729C44.7082 13.6667 45.1333 15.2479 45.1331 16.8573ZM12.8087 34.16H31.8837V35.1602H12.8087V34.16ZM31.8837 30.1589H12.8087V31.7594H31.8837V30.1589ZM12.8087 26.1588H31.8837V27.9593H12.8087V26.1588ZM31.8837 22.1578H12.8087V24.1583H31.8837V22.1578ZM12.8087 18.3571H31.8837V20.3576H12.8087V18.3571ZM31.8878 13.9545H29.0768V16.7552H31.8878V13.9545ZM23.6553 13.9545H26.4663V16.7552H23.6553V13.9545ZM21.0429 13.9545H18.2319V16.7552H21.0429V13.9545ZM12.8099 13.955H15.6209V16.7558H12.8099V13.955Z" fill="#3AB54A"/>
<path d="M83.8126 13.4756V34.8279H78.8857V18.3943L74.6279 18.8709V14.9054L83.8126 13.4756Z" fill="#fff"/>
<rect x="62.3818" y="18.3564" width="4.59233" height="16.4718" fill="#fff"/>
<path d="M57.4834 15.001H71.8727V18.6614H57.4834V15.001Z" fill="#fff"/>
<path fill-rule="evenodd" clip-rule="evenodd" d="M107.999 24.4565C107.999 30.3527 103.202 35.1326 97.2838 35.1326C91.3658 35.1326 86.5684 30.3527 86.5684 24.4565C86.5684 18.5602 91.3658 13.7803 97.2838 13.7803C103.202 13.7803 107.999 18.5602 107.999 24.4565ZM103.616 24.4565C103.616 27.9406 100.781 30.7651 97.2838 30.7651C93.7868 30.7651 90.9519 27.9406 90.9519 24.4565C90.9519 20.9723 93.7868 18.1478 97.2838 18.1478C100.781 18.1478 103.616 20.9723 103.616 24.4565ZM103.453 20.6436C104.594 20.6436 105.52 19.7218 105.52 18.5847C105.52 17.4475 104.594 16.5257 103.453 16.5257C102.312 16.5257 101.386 17.4475 101.386 18.5847C101.386 19.7218 102.312 20.6436 103.453 20.6436Z" fill="#fff"/>
</svg>
